<?xml version="1.0" encoding="iso-8859-1"?>
<!-- Generator: Adobe Illustrator 18.0.0, SVG Export Plug-In . SVG Version: 6.00 Build 0)  -->
<!DOCTYPE svg PUBLIC "-//W3C//DTD SVG 1.1//EN" "http://www.w3.org/Graphics/SVG/1.1/DTD/svg11.dtd">
<svg version="1.1" id="Capa_1" xmlns="http://www.w3.org/2000/svg" xmlns:xlink="http://www.w3.org/1999/xlink" x="0px" y="0px"
	 viewBox="0 0 297 297" style="enable-background:new 0 0 297 297;" xml:space="preserve">
<g>
	<path d="M130.4,65.354h36.182c5.504,0,9.966-4.463,9.966-9.967s-4.462-9.966-9.966-9.966H130.4c-5.504,0-9.966,4.462-9.966,9.966
		S124.896,65.354,130.4,65.354z"/>
	<path d="M130.4,101.691h36.182c5.504,0,9.966-4.462,9.966-9.966s-4.462-9.967-9.966-9.967H130.4c-5.504,0-9.966,4.463-9.966,9.967
		S124.896,101.691,130.4,101.691z"/>
	<path d="M176.547,128.061c0-5.504-4.462-9.966-9.966-9.966H130.4c-5.504,0-9.966,4.462-9.966,9.966
		c0,5.504,4.462,9.967,9.966,9.967h36.182C172.085,138.027,176.547,133.564,176.547,128.061z"/>
	<path d="M229.5,282.041l-17.817-35.786c-1.685-3.386-5.141-5.524-8.922-5.524h-44.304v-57.282h5.533
		c26.874,0,48.737-21.863,48.737-48.737V48.738C212.728,21.864,190.865,0,163.99,0h-30.999c-26.875,0-48.738,21.864-48.738,48.738
		v85.973c0,26.874,21.863,48.737,48.738,48.737h5.532v57.282H94.217c-3.781,0-7.237,2.141-8.922,5.525l-18.088,36.336
		c-1.537,3.09-1.368,6.755,0.449,9.689c1.817,2.935,5.022,4.72,8.474,4.72h144.721c0.008,0.001,0.016,0,0.02,0
		c5.505,0,9.967-4.463,9.967-9.967C230.837,285.214,230.351,283.509,229.5,282.041z M104.186,134.711V48.738
		c0-15.883,12.922-28.805,28.806-28.805h30.999c15.883,0,28.805,12.922,28.805,28.805v85.973c0,15.883-12.922,28.805-28.805,28.805
		h-30.999C117.108,163.516,104.186,150.594,104.186,134.711z M92.224,277.066l8.165-16.403h96.2l8.167,16.403H92.224z"/>
</g>
<g>
</g>
<g>
</g>
<g>
</g>
<g>
</g>
<g>
</g>
<g>
</g>
<g>
</g>
<g>
</g>
<g>
</g>
<g>
</g>
<g>
</g>
<g>
</g>
<g>
</g>
<g>
</g>
<g>
</g>
</svg>
