<?xml version="1.0" encoding="iso-8859-1"?>
<!-- Generator: Adobe Illustrator 18.1.1, SVG Export Plug-In . SVG Version: 6.00 Build 0)  -->
<svg version="1.1" id="Capa_1" xmlns="http://www.w3.org/2000/svg" xmlns:xlink="http://www.w3.org/1999/xlink" x="0px" y="0px"
	 viewBox="0 0 261.075 261.075" style="enable-background:new 0 0 261.075 261.075;" xml:space="preserve">
<g>
	<g>
		<path style="fill:#010002;" d="M126.855,174.05h5.744c22.447,0,40.641-18.194,40.641-40.641V40.641
			C173.24,18.194,155.046,0,132.599,0h-5.744c-22.447,0-40.641,18.194-40.641,40.641v92.769
			C86.215,155.856,104.408,174.05,126.855,174.05z"/>
		<path style="fill:#010002;" d="M124.288,201.147v43.61H86.215c-4.504,0-8.159,3.65-8.159,8.159s3.655,8.159,8.159,8.159h92.464
			c4.504,0,8.159-3.65,8.159-8.159s-3.655-8.159-8.159-8.159h-38.073v-43.823c34.832-3.138,63.262-34.44,63.262-71.208
			c0-4.509-3.655-8.159-8.159-8.159s-8.159,3.65-8.159,8.159c0,29.92-24.122,55.201-52.672,55.201h-8.686
			c-28.544,0-52.666-24.699-52.666-53.939c0-4.509-3.655-8.159-8.159-8.159s-8.159,3.65-8.159,8.159
			C57.208,169.073,87.134,200.109,124.288,201.147z"/>
	</g>
</g>
<g>
</g>
<g>
</g>
<g>
</g>
<g>
</g>
<g>
</g>
<g>
</g>
<g>
</g>
<g>
</g>
<g>
</g>
<g>
</g>
<g>
</g>
<g>
</g>
<g>
</g>
<g>
</g>
<g>
</g>
</svg>
